<?xml version="1.0" standalone="no"?>
<!DOCTYPE svg PUBLIC "-//W3C//DTD SVG 20010904//EN"
 "http://www.w3.org/TR/2001/REC-SVG-20010904/DTD/svg10.dtd">
<svg version="1.0" xmlns="http://www.w3.org/2000/svg"
 width="493.000000pt" height="493.000000pt" viewBox="0 0 493.000000 493.000000"
 preserveAspectRatio="xMidYMid meet">
<metadata>
Created by potrace 1.14, written by Peter Selinger 2001-2017
</metadata>
<g transform="translate(0.000000,493.000000) scale(0.100000,-0.100000)"
fill="#000000" stroke="none">
<path d="M2150 4355 c-257 -53 -485 -241 -643 -527 l-31 -56 -65 32 c-347 172
-690 173 -957 5 -149 -95 -290 -304 -330 -494 -89 -412 22 -882 307 -1309 48
-72 103 -149 121 -170 18 -22 65 -78 104 -125 123 -147 347 -369 534 -527 209
-177 532 -395 695 -470 22 -10 43 -23 47 -28 4 -6 8 -7 8 -2 0 4 10 2 23 -6
17 -11 96 -38 127 -43 31 -6 99 -18 115 -22 34 -8 245 -11 250 -4 2 4 18 6 34
5 17 -1 34 2 37 7 3 5 9 7 14 4 5 -3 28 3 52 14 59 27 78 33 116 37 35 3 177
72 257 124 17 11 37 23 45 27 20 10 159 102 174 114 6 5 63 49 126 96 120 90
309 244 396 322 274 247 560 528 670 661 191 229 308 467 352 720 2 14 5 88 7
165 5 225 -44 402 -160 585 -109 172 -317 333 -450 350 -5 1 -14 5 -20 10 -15
12 -100 23 -198 25 -171 5 -370 -47 -562 -145 -64 -33 -119 -60 -121 -60 -2 0
-16 24 -30 53 -35 68 -99 171 -143 227 -53 69 -196 206 -259 249 -211 143
-440 198 -642 156z"/>
</g>
</svg>
